# xmcd
#
# Track frame offsets:
#	150
#	13098
#	22015
#	36387
#	44069
#	55949
#	67904
#	79360
#	93667
#	102565
#	109851
#	119721
#	132471
#	141298
#	155238
#	165447
#	172581
#	183229
#	190651
#	203565
#
# Disc length: 2900 seconds
#
# Revision: 1
# Processed by: cddbd v1.5.2PL0 Copyright (c) Steve Scherf et al.
# Submitted via: audiograbber 1.83.01
#
DISCID=220b5214
DTITLE=Various Artist - Dirty Boogie - The Fortune Records Story  [CD1)
DYEAR=1900
DGENRE=Oldies
TTITLE0=Roy Hall - Dirty Boogie
TTITLE1=Jim Myers - Oh! Baby Baby
TTITLE2=Nolan Strong and The Diablos - Mind Over Matter
TTITLE3=Del Vaughn and THe Fortune Aires - Rock The Universe
TTITLE4=Centurys - Take My Hand
TTITLE5=Johnny Buckett - Let Me Play With Your Poodle
TTITLE6=Delteens - (Why Don't You) Love Me
TTITLE7=Gino Parks and The Hi-Fidelities - Last Night I Cried
TTITLE8=Nathaniel Mayer - Well, I've Got News For You
TTITLE9=Hunt Sisters - Elvis Is Rockin' Again
TTITLE10=Jimmy Lee - You Ain't No Good For Me
TTITLE11=York Brothers - Hamtramck Mama
TTITLE12=Arlando King and The Earthquakes - Baby Only You
TTITLE13=Jimmy Burke and The Sequins - Forbidden Love
TTITLE14=Earl and Joy With RufusShoffner - At The Burlesque Show
TTITLE15=Jim Myers and His Gems - J&D Hop
TTITLE16=Premiers - The Trap Of Love
TTITLE17=Terrigan Brothers and The Sterlings - Hi Ho Little Girl
TTITLE18=Royal Jokers - September In The Rain
TTITLE19=Skeets McDonald - Birthday Cake Boogie
EXTD=
EXTT0=
EXTT1=
EXTT2=
EXTT3=
EXTT4=
EXTT5=
EXTT6=
EXTT7=
EXTT8=
EXTT9=
EXTT10=
EXTT11=
EXTT12=
EXTT13=
EXTT14=
EXTT15=
EXTT16=
EXTT17=
EXTT18=
EXTT19=
PLAYORDER=
